<?xml version="1.0" standalone="no"?>
<!DOCTYPE svg PUBLIC "-//W3C//DTD SVG 20010904//EN"
 "http://www.w3.org/TR/2001/REC-SVG-20010904/DTD/svg10.dtd">
<svg version="1.0" xmlns="http://www.w3.org/2000/svg"
 width="320.000000pt" height="363.000000pt" viewBox="0 0 320.000000 363.000000"
 preserveAspectRatio="xMidYMid meet">

<g transform="translate(0.000000,363.000000) scale(0.100000,-0.100000)"
fill="#000000" stroke="none">
<path d="M1030 2695 c-85 -53 -170 -105 -187 -115 -37 -22 -42 -46 -14 -81 10
-13 29 -44 42 -69 22 -41 24 -56 23 -170 -2 -167 -20 -262 -110 -573 -42 -144
-82 -295 -90 -335 -28 -145 -13 -299 41 -435 34 -84 54 -103 94 -89 20 7 352
201 389 227 1 1 -13 29 -32 61 -61 104 -79 174 -79 304 -1 127 14 200 97 475
24 83 54 186 65 230 50 199 65 413 36 512 -19 65 -74 147 -100 151 -11 1 -88
-39 -175 -93z"/>
<path d="M1868 2770 c-21 -13 -298 -454 -298 -475 0 -9 -3 -14 -7 -12 -5 3 -7
-29 -5 -71 3 -62 9 -88 32 -129 15 -29 23 -50 17 -47 -7 4 -2 -3 11 -15 12
-12 22 -30 22 -41 0 -10 5 -22 10 -25 6 -4 7 -11 4 -17 -5 -8 -1 -9 10 -5 11
4 15 3 10 -4 -3 -6 3 -19 15 -30 12 -11 21 -25 21 -32 -1 -7 -6 -5 -14 6 -20
25 -29 21 -11 -6 8 -13 12 -28 8 -32 -5 -5 -1 -4 8 3 13 9 16 9 16 -3 0 -14
-11 -19 -31 -16 -5 1 -4 -5 4 -13 7 -9 18 -16 24 -16 6 0 4 5 -4 10 -12 7 -10
9 7 8 19 -2 20 -4 6 -25 -12 -18 -15 -59 -14 -205 1 -101 0 -218 -1 -260 -3
-77 -3 -78 25 -89 15 -6 26 -14 23 -16 -2 -3 -14 1 -26 7 -12 6 -24 9 -27 6
-3 -3 6 -11 21 -17 14 -7 26 -19 26 -28 -1 -14 -2 -13 -11 2 -6 9 -15 15 -20
12 -5 -4 -6 -11 -3 -17 4 -7 2 -8 -5 -4 -6 4 -9 12 -6 17 4 5 0 16 -9 24 -9 9
-17 11 -21 5 -3 -5 -1 -10 4 -10 6 0 10 -3 9 -7 -4 -13 35 -72 44 -67 4 3 5
-2 2 -10 -3 -9 -1 -16 5 -16 6 0 11 -4 11 -10 0 -18 144 -241 162 -251 10 -5
106 -8 220 -7 198 3 203 4 206 24 3 23 -494 825 -531 857 -12 10 -16 15 -8 11
16 -8 18 -12 -40 80 l-37 59 35 56 c34 52 348 552 455 723 56 90 60 114 21
120 -64 9 -349 8 -365 -2z m-141 -1197 c-3 -10 -5 -4 -5 12 0 17 2 24 5 18 2
-7 2 -21 0 -30z"/>
<path d="M1580 1356 c0 -2 7 -7 16 -10 8 -3 12 -2 9 4 -6 10 -25 14 -25 6z"/>
<path d="M1613 1319 c9 -6 14 -15 11 -21 -4 -7 -2 -8 5 -4 14 9 -3 36 -23 36
-6 0 -3 -5 7 -11z"/>
<path d="M1635 1281 c-3 -5 -2 -12 3 -15 5 -3 9 1 9 9 0 17 -3 19 -12 6z"/>
<path d="M1656 1251 c-4 -5 -2 -12 3 -15 5 -4 12 -2 15 3 4 5 2 12 -3 15 -5 4
-12 2 -15 -3z"/>
</g>
</svg>
